<?xml version="1.0" encoding="UTF-8"?>
<svg xmlns="http://www.w3.org/2000/svg" xmlns:xlink="http://www.w3.org/1999/xlink" width="41px" height="41px" viewBox="0 0 41 41" version="1.1">
<g id="surface1">
<path style=" stroke:none;fill-rule:nonzero;fill:rgb(0%,0%,0%);fill-opacity:1;" d="M 40.828125 20.5 C 40.828125 31.726562 31.726562 40.828125 20.5 40.828125 C 9.273438 40.828125 0.171875 31.726562 0.171875 20.5 C 0.171875 9.273438 9.273438 0.171875 20.5 0.171875 C 31.726562 0.171875 40.828125 9.273438 40.828125 20.5 Z M 40.828125 20.5 "/>
<path style=" stroke:none;fill-rule:nonzero;fill:rgb(100%,100%,100%);fill-opacity:1;" d="M 20.5 8.4375 C 17.226562 8.4375 16.808594 8.453125 15.523438 8.515625 C 14.242188 8.574219 13.367188 8.773438 12.601562 9.074219 C 11.808594 9.382812 11.132812 9.792969 10.460938 10.46875 C 9.792969 11.136719 9.382812 11.816406 9.066406 12.609375 C 8.765625 13.371094 8.5625 14.253906 8.507812 15.53125 C 8.453125 16.816406 8.433594 17.226562 8.433594 20.507812 C 8.433594 23.78125 8.445312 24.191406 8.507812 25.480469 C 8.570312 26.765625 8.765625 27.640625 9.066406 28.40625 C 9.375 29.199219 9.785156 29.875 10.460938 30.546875 C 11.132812 31.214844 11.808594 31.632812 12.601562 31.9375 C 13.367188 32.238281 14.246094 32.4375 15.523438 32.5 C 16.808594 32.5625 17.21875 32.574219 20.5 32.574219 C 23.773438 32.574219 24.183594 32.5625 25.476562 32.5 C 26.757812 32.4375 27.632812 32.238281 28.40625 31.9375 C 29.199219 31.632812 29.867188 31.214844 30.539062 30.546875 C 31.207031 29.875 31.617188 29.199219 31.933594 28.40625 C 32.226562 27.640625 32.429688 26.765625 32.492188 25.480469 C 32.546875 24.195312 32.566406 23.785156 32.566406 20.507812 C 32.566406 17.234375 32.554688 16.824219 32.492188 15.53125 C 32.429688 14.246094 32.226562 13.371094 31.933594 12.609375 C 31.625 11.816406 31.207031 11.136719 30.539062 10.46875 C 29.867188 9.800781 29.199219 9.390625 28.398438 9.074219 C 27.628906 8.773438 26.753906 8.574219 25.46875 8.515625 C 24.183594 8.453125 23.773438 8.4375 20.5 8.4375 Z M 19.421875 10.613281 C 19.742188 10.613281 20.097656 10.613281 20.5 10.613281 C 23.71875 10.613281 24.101562 10.625 25.371094 10.679688 C 26.546875 10.734375 27.183594 10.933594 27.613281 11.097656 C 28.175781 11.316406 28.578125 11.574219 29 12 C 29.425781 12.421875 29.683594 12.824219 29.902344 13.386719 C 30.066406 13.808594 30.265625 14.453125 30.320312 15.628906 C 30.375 16.898438 30.386719 17.28125 30.386719 20.5 C 30.386719 23.71875 30.375 24.101562 30.320312 25.371094 C 30.265625 26.546875 30.066406 27.183594 29.902344 27.613281 C 29.683594 28.175781 29.425781 28.578125 29 29 C 28.578125 29.425781 28.179688 29.683594 27.613281 29.902344 C 27.191406 30.066406 26.546875 30.265625 25.371094 30.320312 C 24.101562 30.375 23.71875 30.386719 20.5 30.386719 C 17.28125 30.386719 16.898438 30.375 15.628906 30.320312 C 14.453125 30.265625 13.816406 30.066406 13.386719 29.902344 C 12.824219 29.683594 12.421875 29.425781 12 29 C 11.574219 28.578125 11.316406 28.175781 11.097656 27.613281 C 10.933594 27.191406 10.734375 26.546875 10.679688 25.371094 C 10.625 24.101562 10.613281 23.71875 10.613281 20.5 C 10.613281 17.28125 10.625 16.898438 10.679688 15.628906 C 10.734375 14.453125 10.933594 13.816406 11.097656 13.386719 C 11.316406 12.824219 11.574219 12.421875 12 12 C 12.421875 11.574219 12.824219 11.316406 13.386719 11.097656 C 13.808594 10.933594 14.453125 10.734375 15.628906 10.679688 C 16.742188 10.625 17.171875 10.613281 19.421875 10.613281 Z M 26.9375 12.613281 C 26.136719 12.613281 25.488281 13.261719 25.488281 14.0625 C 25.488281 14.863281 26.136719 15.511719 26.9375 15.511719 C 27.738281 15.511719 28.386719 14.863281 28.386719 14.0625 C 28.386719 13.261719 27.738281 12.613281 26.9375 12.613281 Z M 20.5 14.308594 C 17.078125 14.308594 14.308594 17.082031 14.308594 20.5 C 14.308594 23.921875 17.082031 26.691406 20.5 26.691406 C 23.921875 26.691406 26.691406 23.917969 26.691406 20.5 C 26.691406 17.078125 23.921875 14.308594 20.5 14.308594 Z M 20.5 16.480469 C 22.722656 16.480469 24.519531 18.277344 24.519531 20.5 C 24.519531 22.722656 22.722656 24.519531 20.5 24.519531 C 18.277344 24.519531 16.480469 22.722656 16.480469 20.5 C 16.480469 18.277344 18.277344 16.480469 20.5 16.480469 Z M 20.5 16.480469 "/>
</g>
</svg>
